mastitorrents.com
 
http://mastitorrents.com/forums/index.php

General

Format                           : Matroska
File size                        : 3.86 GiB
Duration                         : 2h 46mn
Overall bit rate                 : 3 317 Kbps
Encoded date                     : UTC 2010-12-22 07:10:47
Writing application              : mkvmerge v4.0.0 ('The Stars were mine') built on Jun  6 2010 16:18:42
Writing library                  : libebml v1.0.0 + libmatroska v1.0.0

Source        :    1080p @ sR33 (Thank You)

Encoder      :     RajMahal @ Team ICF


Video
ID                               : 1
Format                           : AVC
Format/Info                      : Advanced Video Codec
Format profile                   : High@L4.1
Format settings, CABAC           : Yes
Format settings, ReFrames        : 3 frames
Codec ID                         : V_MPEG4/ISO/AVC
Duration                         : 2h 46mn
Bit rate mode                    : Variable
Bit rate                         : 1 800 Kbps
Maximum bit rate                 : 6 000 Kbps
Width                            : 1 280 pixels
Height                           : 544 pixels
Display aspect ratio             : 2.35:1
Frame rate                       : 24.000 fps
Color space                      : YUV
Chroma subsampling               : 4:2:0
Bit depth                        : 8 bits
Scan type                        : Progressive
Bits/(Pixel*Frame)               : 0.108
Stream size                      : 2.03 GiB (52%)
Writing library                  : x264 core 98 r1649 20cbe10

Audio

ID                               : 2
Format                           : DTS
Format/Info                      : Digital Theater Systems
Codec ID                         : A_DTS
Duration                         : 2h 46mn
Bit rate mode                    : Constant
Bit rate                         : 1 510 Kbps
Channel(s)                       : 6 channels
Channel positions                : Front: L C R, Side: L R, LFE
Sampling rate                    : 48.0 KHz
Bit depth                        : 24 bits
Compression mode                 : Lossy
Stream size                      : 1.76 GiB (46%)

Text
ID                               : 3
Format                           : VobSub
Muxing mode                      : zlib
Codec ID                         : S_VOBSUB
Codec ID/Info                    : The same subtitle format used on DVDs
Language                         : English

Chapters                         : Muxed